# xmcd
#
# Track frame offsets:
#	150
#	28335
#	54888
#	76416
#	93939
#	116639
#	141813
#	167874
#	194401
#	217758
#
# Disc length: 3178 seconds
#
# Revision: 1
# Processed by: cddbd v1.5.2PL0 Copyright (c) Steve Scherf et al.
# Submitted via: audiograbber 1.83.01
#
DISCID=830c680a
DTITLE=Various Artist - Serious Beats 69 [CD 2)
DYEAR=2012
DGENRE=Dance
TTITLE0=Steve Aoki ft. Angger Dimas - Steve Jobs
TTITLE1=Afrojack - Lionheart
TTITLE2=Bingo Players - Rattle
TTITLE3=Crookers ft. Style Of Eye and Carli - That Laughing Track
TTITLE4=Sidney Samson and Lil Jon - Mutate
TTITLE5=Gareth Emery - Tokyo
TTITLE6=Hardwell and Joeysuki - Munster
TTITLE7=Wolfgang Gartner - Shrunken Heads
TTITLE8=Riva Starr and Fatboy Slim ft. Beardyman - Get Naked
TTITLE9=Vato Gonzalez - Sockrocker
EXTD=
EXTT0=
EXTT1=
EXTT2=
EXTT3=
EXTT4=
EXTT5=
EXTT6=
EXTT7=
EXTT8=
EXTT9=
PLAYORDER=
